M48
; DRILL file KiCad 10.0.3 date 2026-07-19T09:49:03
; FORMAT={-:-/ absolute / metric / decimal}
; #@! TF.CreationDate,2026-07-19T09:49:03-07:00
; #@! TF.GenerationSoftware,Kicad,Pcbnew,10.0.3
; #@! TF.FileFunction,NonPlated,1,2,NPTH
FMAT,2
METRIC
; #@! TA.AperFunction,NonPlated,NPTH,ComponentDrill
T1C0.650
; #@! TA.AperFunction,NonPlated,NPTH,ComponentDrill
T2C1.750
; #@! TA.AperFunction,NonPlated,NPTH,ComponentDrill
T3C3.988
%
G90
G05
T1
X33.304Y-24.953
X39.084Y-24.953
T2
X22.028Y-52.832
X22.028Y-71.882
X22.028Y-90.932
X22.028Y-109.982
X22.028Y-129.032
X32.188Y-52.832
X32.188Y-71.882
X32.188Y-90.932
X32.188Y-109.982
X32.188Y-129.032
X45.841Y-29.019
X45.841Y-52.832
X48.222Y-129.032
X50.603Y-71.882
X52.985Y-90.932
X56.001Y-29.019
X56.001Y-52.832
X57.747Y-109.982
X58.382Y-129.032
X60.764Y-71.882
X63.145Y-90.932
X64.891Y-52.832
X67.907Y-109.982
X69.653Y-29.019
X72.035Y-129.032
X74.416Y-71.882
X75.051Y-52.832
X79.178Y-90.932
X79.813Y-29.019
X82.195Y-129.032
X83.941Y-52.832
X84.576Y-71.882
X88.703Y-29.019
X88.703Y-109.982
X89.338Y-90.932
X93.466Y-71.882
X94.101Y-52.832
X95.847Y-129.032
X98.228Y-90.932
X98.864Y-29.019
X98.864Y-109.982
X103.017Y-52.832
X103.626Y-71.882
X106.007Y-129.032
X107.753Y-29.019
X107.753Y-109.982
X108.388Y-90.932
X112.516Y-71.882
X113.177Y-52.832
X117.278Y-90.932
X117.913Y-29.019
X117.913Y-109.982
X122.041Y-52.832
X122.676Y-71.882
X126.803Y-29.019
X126.803Y-109.982
X127.438Y-90.932
X131.566Y-71.882
X132.201Y-52.832
X136.328Y-90.932
X136.963Y-29.019
X136.963Y-109.982
X141.091Y-52.832
X141.726Y-71.882
X145.853Y-109.982
X146.488Y-90.932
X150.616Y-29.019
X150.616Y-71.882
X151.251Y-52.832
X155.379Y-90.932
X156.013Y-109.982
X160.141Y-52.832
X160.776Y-29.019
X160.776Y-71.882
X164.903Y-109.982
X165.538Y-90.932
X167.285Y-129.032
X169.666Y-29.019
X169.666Y-71.882
X170.301Y-52.832
X174.428Y-90.932
X175.064Y-109.982
X177.445Y-129.032
X179.191Y-52.832
X179.826Y-29.019
X179.826Y-71.882
X183.953Y-109.982
X184.588Y-90.932
X188.716Y-29.019
X188.716Y-71.882
X189.351Y-52.832
X193.478Y-90.932
X194.113Y-109.982
X198.241Y-52.832
X198.876Y-29.019
X198.876Y-71.882
X203.004Y-109.982
X203.638Y-90.932
X207.766Y-29.019
X207.766Y-71.882
X208.401Y-52.832
X212.528Y-90.932
X213.163Y-109.982
X217.291Y-52.832
X217.926Y-29.019
X217.926Y-71.882
X222.053Y-109.982
X222.688Y-90.932
X226.816Y-71.882
X227.451Y-52.832
X231.578Y-29.019
X231.578Y-90.932
X232.213Y-109.982
X236.341Y-52.832
X236.341Y-129.032
X236.976Y-71.882
X241.103Y-109.982
X241.738Y-29.019
X241.738Y-90.932
X245.866Y-71.882
X246.501Y-52.832
X246.501Y-129.032
X250.629Y-29.019
X250.629Y-90.932
X251.263Y-109.982
X255.391Y-52.832
X255.391Y-129.032
X256.026Y-71.882
X260.154Y-109.982
X260.788Y-29.019
X260.788Y-90.932
X264.916Y-71.882
X265.551Y-52.832
X265.551Y-129.032
X269.678Y-29.019
X269.678Y-90.932
X270.313Y-109.982
X274.441Y-52.832
X274.441Y-129.032
X275.076Y-71.882
X279.839Y-29.019
X279.839Y-90.932
X283.966Y-71.882
X284.601Y-52.832
X284.601Y-129.032
X286.347Y-109.982
X288.728Y-29.019
X294.126Y-71.882
X296.507Y-109.982
X298.253Y-133.794
X298.888Y-29.019
X300.635Y-90.932
X303.016Y-52.832
X307.779Y-71.882
X308.413Y-133.794
X310.795Y-90.932
X312.541Y-29.019
X313.176Y-52.832
X317.303Y-114.744
X317.303Y-133.794
X317.938Y-71.882
X322.701Y-29.019
X327.464Y-114.744
X327.464Y-133.794
X336.353Y-52.832
X336.353Y-71.882
X336.353Y-90.932
X336.353Y-133.794
X346.513Y-52.832
X346.513Y-71.882
X346.513Y-90.932
X346.513Y-133.794
T3
X27.108Y-52.832
X27.108Y-71.882
X27.108Y-90.932
X27.108Y-109.982
X27.108Y-129.032
X50.921Y-29.019
X50.921Y-52.832
X50.921Y-118.299
X53.302Y-129.032
X55.683Y-71.882
X58.065Y-90.932
X62.827Y-109.982
X69.971Y-52.832
X74.733Y-29.019
X74.733Y-118.299
X77.115Y-129.032
X79.496Y-71.882
X84.258Y-90.932
X89.021Y-52.832
X93.783Y-29.019
X93.783Y-109.982
X98.546Y-71.882
X100.927Y-129.032
X103.308Y-90.932
X108.097Y-52.832
X112.834Y-29.019
X112.834Y-109.982
X117.596Y-71.882
X122.358Y-90.932
X122.361Y-120.777
X127.121Y-52.832
X131.883Y-29.019
X131.883Y-109.982
X136.646Y-71.882
X141.409Y-90.932
X146.171Y-52.832
X150.933Y-109.982
X155.696Y-29.019
X155.696Y-71.882
X160.458Y-90.932
X165.221Y-52.832
X169.983Y-109.982
X172.365Y-129.032
X174.746Y-29.019
X174.746Y-71.882
X179.508Y-90.932
X184.271Y-52.832
X189.034Y-109.982
X193.796Y-29.019
X193.796Y-71.882
X198.558Y-90.932
X203.321Y-52.832
X208.083Y-109.982
X212.846Y-29.019
X212.846Y-71.882
X217.608Y-90.932
X222.371Y-52.832
X222.373Y-120.777
X227.133Y-109.982
X231.896Y-71.882
X236.658Y-29.019
X236.658Y-90.932
X241.421Y-52.832
X241.421Y-129.032
X246.183Y-109.982
X250.946Y-71.882
X255.708Y-29.019
X255.708Y-90.932
X260.471Y-52.832
X260.471Y-129.032
X265.233Y-109.982
X269.996Y-71.882
X274.758Y-29.019
X274.758Y-90.932
X279.521Y-52.832
X279.521Y-129.032
X289.046Y-71.882
X291.427Y-109.982
X293.808Y-29.019
X294.284Y-92.037
X296.983Y-61.149
X303.333Y-133.794
X305.715Y-90.932
X308.096Y-52.832
X312.858Y-71.882
X317.621Y-29.019
X318.097Y-92.037
X320.796Y-61.149
X322.383Y-114.744
X322.383Y-133.794
X341.433Y-52.832
X341.433Y-71.882
X341.433Y-90.932
X341.433Y-133.794
M30
