M48
; DRILL file KiCad 10.0.3 date 2026-07-19T09:49:03
; FORMAT={-:-/ absolute / metric / decimal}
; #@! TF.CreationDate,2026-07-19T09:49:03-07:00
; #@! TF.GenerationSoftware,Kicad,Pcbnew,10.0.3
; #@! TF.FileFunction,Plated,1,2,PTH
FMAT,2
METRIC
; #@! TA.AperFunction,Plated,PTH,ViaDrill
T1C0.300
; #@! TA.AperFunction,Plated,PTH,ComponentDrill
T2C0.600
; #@! TA.AperFunction,Plated,PTH,ComponentDrill
T3C1.000
; #@! TA.AperFunction,Plated,PTH,ComponentDrill
T4C3.000
; #@! TA.AperFunction,Plated,PTH,ComponentDrill
T5C3.048
%
G90
G05
T1
X19.647Y-29.331
X19.647Y-45.206
X19.647Y-61.874
X19.647Y-80.924
X19.647Y-99.974
X19.647Y-119.024
X19.647Y-138.075
X24.409Y-141.249
X26.791Y-21.393
X29.966Y-28.537
X29.966Y-34.093
X32.647Y-55.212
X33.4Y-29.465
X38.48Y-29.465
X40.047Y-55.212
X41.872Y-28.537
X41.872Y-34.093
X62.509Y-21.393
X83.941Y-21.393
X102.991Y-21.393
X117.278Y-141.612
X119.147Y-127.612
X119.897Y-128.112
X120.897Y-128.362
X121.647Y-128.862
X122.041Y-21.393
X123.247Y-74.412
X127.889Y-126.746
X128.247Y-93.412
X128.778Y-96.774
X129.247Y-74.412
X130.247Y-134.412
X130.397Y-113.612
X132.359Y-141.612
X132.969Y-96.774
X134.239Y-97.409
X134.397Y-115.112
X134.447Y-133.012
X135.047Y-93.412
X135.89Y-114.808
X137.247Y-112.412
X139.503Y-107.118
X139.7Y-121.793
X139.827Y-117.348
X141.091Y-130.931
X141.732Y-115.443
X143.383Y-127.254
X143.472Y-21.393
X143.51Y-113.538
X144.247Y-134.412
X144.907Y-128.905
X145.059Y-80.924
X145.059Y-122.2
X146.304Y-115.316
X146.647Y-120.612
X146.812Y-112.423
X148.082Y-125.857
X148.234Y-119.024
X148.234Y-122.2
X148.336Y-114.046
X148.647Y-112.012
X148.844Y-135.382
X149.098Y-129.667
X150.368Y-113.919
X150.368Y-135.001
X151.861Y-117.332
X152.146Y-112.903
X154.395Y-118.364
X155.397Y-130.362
X155.847Y-111.812
X156.147Y-122.362
X156.172Y-141.612
X156.897Y-130.612
X157.76Y-107.118
X158.147Y-130.612
X159.147Y-130.612
X159.323Y-123.048
X160.397Y-130.362
X161.647Y-129.612
X161.647Y-130.612
X161.728Y-113.468
X163.316Y-122.2
X164.903Y-21.393
X164.903Y-80.924
X166.247Y-111.812
X167.897Y-116.362
X169.647Y-98.412
X169.666Y-114.262
X183.953Y-21.393
X191.097Y-115.849
X201.416Y-126.962
X203.003Y-21.393
X225.228Y-21.393
X228.403Y-128.549
X245.866Y-21.393
X265.709Y-21.393
X283.966Y-21.393
X306.191Y-21.393
X330.647Y-53.862
X330.647Y-95.112
X332.147Y-72.612
X332.147Y-95.112
X336.353Y-141.249
X337.941Y-21.393
X346.672Y-141.249
X348.26Y-98.387
X348.26Y-120.612
X349.053Y-24.568
X349.053Y-34.887
X349.053Y-59.493
T3
X132.588Y-136.906
X135.128Y-136.906
X137.668Y-136.906
X140.208Y-136.906
X142.748Y-136.906
T4
X23.299Y-50.292
X23.299Y-69.342
X23.299Y-88.392
X23.299Y-107.442
X23.299Y-126.492
X29.648Y-47.752
X29.648Y-66.802
X29.648Y-85.852
X29.648Y-104.902
X29.648Y-123.952
X47.111Y-26.479
X47.111Y-50.292
X49.492Y-126.492
X51.873Y-69.342
X53.461Y-23.939
X53.461Y-47.752
X54.255Y-88.392
X55.842Y-123.952
X58.223Y-66.802
X59.017Y-107.442
X60.605Y-85.852
X65.367Y-104.902
X66.161Y-50.292
X70.923Y-26.479
X72.511Y-47.752
X73.305Y-126.492
X75.686Y-69.342
X77.273Y-23.939
X79.655Y-123.952
X80.448Y-88.392
X82.036Y-66.802
X85.211Y-50.292
X86.798Y-85.852
X89.974Y-26.479
X89.974Y-107.442
X91.561Y-47.752
X94.736Y-69.342
X96.323Y-23.939
X96.323Y-104.902
X97.117Y-126.492
X99.498Y-88.392
X101.086Y-66.802
X103.467Y-123.952
X104.287Y-50.292
X105.849Y-85.852
X109.023Y-26.479
X109.023Y-107.442
X110.637Y-47.752
X113.786Y-69.342
X115.373Y-23.939
X115.373Y-104.902
X118.548Y-88.392
X120.136Y-66.802
X123.311Y-50.292
X124.898Y-85.852
X128.073Y-26.479
X128.073Y-107.442
X129.661Y-47.752
X132.836Y-69.342
X134.423Y-23.939
X134.423Y-104.902
X137.599Y-88.392
X139.186Y-66.802
X142.361Y-50.292
X143.948Y-85.852
X147.124Y-107.442
X148.711Y-47.752
X151.886Y-26.479
X151.886Y-69.342
X153.474Y-104.902
X156.648Y-88.392
X158.236Y-23.939
X158.236Y-66.802
X161.411Y-50.292
X162.998Y-85.852
X166.173Y-107.442
X167.761Y-47.752
X168.555Y-126.492
X170.936Y-26.479
X170.936Y-69.342
X172.523Y-104.902
X174.905Y-123.952
X175.698Y-88.392
X177.286Y-23.939
X177.286Y-66.802
X180.461Y-50.292
X182.048Y-85.852
X185.224Y-107.442
X186.811Y-47.752
X189.986Y-26.479
X189.986Y-69.342
X191.573Y-104.902
X194.748Y-88.392
X196.336Y-23.939
X196.336Y-66.802
X199.511Y-50.292
X201.099Y-85.852
X204.273Y-107.442
X205.861Y-47.752
X209.036Y-26.479
X209.036Y-69.342
X210.623Y-104.902
X213.798Y-88.392
X215.386Y-23.939
X215.386Y-66.802
X218.561Y-50.292
X220.148Y-85.852
X223.323Y-107.442
X224.911Y-47.752
X228.086Y-69.342
X229.673Y-104.902
X232.849Y-26.479
X232.849Y-88.392
X234.436Y-66.802
X237.611Y-50.292
X237.611Y-126.492
X239.198Y-23.939
X239.198Y-85.852
X242.373Y-107.442
X243.961Y-47.752
X243.961Y-123.952
X247.136Y-69.342
X248.724Y-104.902
X251.898Y-26.479
X251.898Y-88.392
X253.486Y-66.802
X256.661Y-50.292
X256.661Y-126.492
X258.248Y-23.939
X258.248Y-85.852
X261.423Y-107.442
X263.011Y-47.752
X263.011Y-123.952
X266.186Y-69.342
X267.774Y-104.902
X270.948Y-26.479
X270.948Y-88.392
X272.536Y-66.802
X275.711Y-50.292
X275.711Y-126.492
X277.298Y-23.939
X277.298Y-85.852
X282.061Y-47.752
X282.061Y-123.952
X285.236Y-69.342
X287.617Y-107.442
X289.998Y-26.479
X291.586Y-66.802
X293.967Y-104.902
X296.349Y-23.939
X299.524Y-131.255
X301.905Y-88.392
X304.286Y-50.292
X305.873Y-128.714
X308.255Y-85.852
X309.048Y-69.342
X310.636Y-47.752
X313.811Y-26.479
X315.399Y-66.802
X318.573Y-112.204
X318.573Y-131.255
X320.161Y-23.939
X324.923Y-109.664
X324.923Y-128.714
X337.623Y-50.292
X337.623Y-69.342
X337.623Y-88.392
X337.623Y-131.255
X343.974Y-47.752
X343.974Y-66.802
X343.974Y-85.852
X343.974Y-128.714
T5
X50.921Y-103.059
X74.733Y-103.059
X122.361Y-136.017
X222.373Y-136.017
X294.284Y-76.797
X296.983Y-45.91
X318.097Y-76.797
X320.796Y-45.91
T2
G00X31.874Y-21.003
M15
G01X31.874Y-21.603
M16
G05
G00X31.874Y-24.933
M15
G01X31.874Y-26.033
M16
G05
G00X40.514Y-21.003
M15
G01X40.514Y-21.603
M16
G05
G00X40.514Y-24.933
M15
G01X40.514Y-26.033
M16
G05
M30
