%TF.GenerationSoftware,KiCad,Pcbnew,10.0.3*%
%TF.CreationDate,2026-07-19T09:48:29-07:00*%
%TF.ProjectId,PCB,5043422e-6b69-4636-9164-5f7063625858,rev?*%
%TF.SameCoordinates,Original*%
%TF.FileFunction,Soldermask,Bot*%
%TF.FilePolarity,Negative*%
%FSLAX46Y46*%
G04 Gerber Fmt 4.6, Leading zero omitted, Abs format (unit mm)*
G04 Created by KiCad (PCBNEW 10.0.3) date 2026-07-19 09:48:29*
%MOMM*%
%LPD*%
G01*
G04 APERTURE LIST*
G04 Aperture macros list*
%AMRoundRect*
0 Rectangle with rounded corners*
0 $1 Rounding radius*
0 $2 $3 $4 $5 $6 $7 $8 $9 X,Y pos of 4 corners*
0 Add a 4 corners polygon primitive as box body*
4,1,4,$2,$3,$4,$5,$6,$7,$8,$9,$2,$3,0*
0 Add four circle primitives for the rounded corners*
1,1,$1+$1,$2,$3*
1,1,$1+$1,$4,$5*
1,1,$1+$1,$6,$7*
1,1,$1+$1,$8,$9*
0 Add four rect primitives between the rounded corners*
20,1,$1+$1,$2,$3,$4,$5,0*
20,1,$1+$1,$4,$5,$6,$7,0*
20,1,$1+$1,$6,$7,$8,$9,0*
20,1,$1+$1,$8,$9,$2,$3,0*%
G04 Aperture macros list end*
%ADD10C,3.300000*%
%ADD11RoundRect,0.250000X1.025000X1.000000X-1.025000X1.000000X-1.025000X-1.000000X1.025000X-1.000000X0*%
%ADD12C,1.750000*%
%ADD13C,3.987800*%
%ADD14RoundRect,0.225000X0.375000X-0.225000X0.375000X0.225000X-0.375000X0.225000X-0.375000X-0.225000X0*%
%ADD15C,4.000000*%
%ADD16RoundRect,0.140000X0.140000X0.170000X-0.140000X0.170000X-0.140000X-0.170000X0.140000X-0.170000X0*%
%ADD17RoundRect,0.150000X0.512500X0.150000X-0.512500X0.150000X-0.512500X-0.150000X0.512500X-0.150000X0*%
%ADD18R,1.700000X1.000000*%
%ADD19RoundRect,0.135000X-0.185000X0.135000X-0.185000X-0.135000X0.185000X-0.135000X0.185000X0.135000X0*%
%ADD20RoundRect,0.135000X0.135000X0.185000X-0.135000X0.185000X-0.135000X-0.185000X0.135000X-0.185000X0*%
%ADD21RoundRect,0.140000X0.170000X-0.140000X0.170000X0.140000X-0.170000X0.140000X-0.170000X-0.140000X0*%
%ADD22RoundRect,0.140000X-0.140000X-0.170000X0.140000X-0.170000X0.140000X0.170000X-0.140000X0.170000X0*%
%ADD23RoundRect,0.135000X-0.135000X-0.185000X0.135000X-0.185000X0.135000X0.185000X-0.135000X0.185000X0*%
%ADD24RoundRect,0.250000X-0.625000X0.375000X-0.625000X-0.375000X0.625000X-0.375000X0.625000X0.375000X0*%
%ADD25RoundRect,0.140000X-0.021213X0.219203X-0.219203X0.021213X0.021213X-0.219203X0.219203X-0.021213X0*%
%ADD26RoundRect,0.050000X0.387500X0.050000X-0.387500X0.050000X-0.387500X-0.050000X0.387500X-0.050000X0*%
%ADD27RoundRect,0.050000X0.050000X0.387500X-0.050000X0.387500X-0.050000X-0.387500X0.050000X-0.387500X0*%
%ADD28R,3.200000X3.200000*%
%ADD29C,0.650000*%
%ADD30RoundRect,0.150000X-0.150000X-0.575000X0.150000X-0.575000X0.150000X0.575000X-0.150000X0.575000X0*%
%ADD31RoundRect,0.075000X-0.075000X-0.650000X0.075000X-0.650000X0.075000X0.650000X-0.075000X0.650000X0*%
%ADD32O,1.000000X1.600000*%
%ADD33O,1.000000X2.100000*%
%ADD34RoundRect,0.140000X-0.170000X0.140000X-0.170000X-0.140000X0.170000X-0.140000X0.170000X0.140000X0*%
%ADD35RoundRect,0.162500X0.650000X0.162500X-0.650000X0.162500X-0.650000X-0.162500X0.650000X-0.162500X0*%
%ADD36RoundRect,0.250000X-0.070711X-0.565685X0.565685X0.070711X0.070711X0.565685X-0.565685X-0.070711X0*%
%ADD37RoundRect,0.135000X0.035355X-0.226274X0.226274X-0.035355X-0.035355X0.226274X-0.226274X0.035355X0*%
%ADD38R,1.700000X1.700000*%
%ADD39C,1.700000*%
%ADD40RoundRect,0.140000X0.219203X0.021213X0.021213X0.219203X-0.219203X-0.021213X-0.021213X-0.219203X0*%
%ADD41RoundRect,0.150000X-0.625000X0.150000X-0.625000X-0.150000X0.625000X-0.150000X0.625000X0.150000X0*%
%ADD42RoundRect,0.250000X-0.650000X0.350000X-0.650000X-0.350000X0.650000X-0.350000X0.650000X0.350000X0*%
%ADD43RoundRect,0.225000X0.225000X0.250000X-0.225000X0.250000X-0.225000X-0.250000X0.225000X-0.250000X0*%
G04 APERTURE END LIST*
D10*
%TO.C,MX29*%
X310636000Y-47752000D03*
D11*
X314186000Y-47752000D03*
X300736000Y-50292000D03*
D10*
X304286000Y-50292000D03*
D12*
X303016000Y-52832000D03*
D13*
X308096000Y-52832000D03*
D12*
X313176000Y-52832000D03*
%TD*%
D14*
%TO.C,D29*%
X311271000Y-51975750D03*
X311271000Y-55275750D03*
%TD*%
D12*
%TO.C,MX6*%
X160776000Y-29019500D03*
D13*
X155696000Y-29019500D03*
D12*
X150616000Y-29019500D03*
D10*
X151886000Y-26479500D03*
D11*
X148336000Y-26479500D03*
X161786000Y-23939500D03*
D10*
X158236000Y-23939500D03*
%TD*%
D14*
%TO.C,D1*%
X54096000Y-28163250D03*
X54096000Y-31463250D03*
%TD*%
D10*
%TO.C,MX2*%
X77273500Y-23939500D03*
D11*
X80823500Y-23939500D03*
X67373500Y-26479500D03*
D10*
X70923500Y-26479500D03*
D12*
X69653500Y-29019500D03*
D13*
X74733500Y-29019500D03*
D12*
X79813500Y-29019500D03*
%TD*%
D10*
%TO.C,MX1*%
X53461000Y-23939500D03*
D11*
X57011000Y-23939500D03*
X43561000Y-26479500D03*
D10*
X47111000Y-26479500D03*
D12*
X45841000Y-29019500D03*
D13*
X50921000Y-29019500D03*
D12*
X56001000Y-29019500D03*
%TD*%
D14*
%TO.C,D2*%
X77908500Y-28163250D03*
X77908500Y-31463250D03*
%TD*%
D10*
%TO.C,MX3*%
X96323500Y-23939500D03*
D11*
X99873500Y-23939500D03*
X86423500Y-26479500D03*
D10*
X89973500Y-26479500D03*
D12*
X88703500Y-29019500D03*
D13*
X93783500Y-29019500D03*
D12*
X98863500Y-29019500D03*
%TD*%
D14*
%TO.C,D3*%
X96958500Y-28163250D03*
X96958500Y-31463250D03*
%TD*%
D10*
%TO.C,MX4*%
X115373500Y-23939500D03*
D11*
X118923500Y-23939500D03*
X105473500Y-26479500D03*
D10*
X109023500Y-26479500D03*
D12*
X107753500Y-29019500D03*
D13*
X112833500Y-29019500D03*
D12*
X117913500Y-29019500D03*
%TD*%
D14*
%TO.C,D4*%
X116008500Y-28163250D03*
X116008500Y-31463250D03*
%TD*%
D10*
%TO.C,MX5*%
X134423500Y-23939500D03*
D11*
X137973500Y-23939500D03*
X124523500Y-26479500D03*
D10*
X128073500Y-26479500D03*
D12*
X126803500Y-29019500D03*
D13*
X131883500Y-29019500D03*
D12*
X136963500Y-29019500D03*
%TD*%
D14*
%TO.C,D5*%
X135058500Y-28163250D03*
X135058500Y-31463250D03*
%TD*%
%TO.C,D6*%
X158871000Y-28163250D03*
X158871000Y-31463250D03*
%TD*%
D10*
%TO.C,MX7*%
X177286000Y-23939500D03*
D11*
X180836000Y-23939500D03*
X167386000Y-26479500D03*
D10*
X170936000Y-26479500D03*
D12*
X169666000Y-29019500D03*
D13*
X174746000Y-29019500D03*
D12*
X179826000Y-29019500D03*
%TD*%
D14*
%TO.C,D7*%
X177921000Y-28163250D03*
X177921000Y-31463250D03*
%TD*%
D10*
%TO.C,MX8*%
X196336000Y-23939500D03*
D11*
X199886000Y-23939500D03*
X186436000Y-26479500D03*
D10*
X189986000Y-26479500D03*
D12*
X188716000Y-29019500D03*
D13*
X193796000Y-29019500D03*
D12*
X198876000Y-29019500D03*
%TD*%
D14*
%TO.C,D8*%
X196971000Y-28163250D03*
X196971000Y-31463250D03*
%TD*%
D10*
%TO.C,MX9*%
X215386000Y-23939500D03*
D11*
X218936000Y-23939500D03*
X205486000Y-26479500D03*
D10*
X209036000Y-26479500D03*
D12*
X207766000Y-29019500D03*
D13*
X212846000Y-29019500D03*
D12*
X217926000Y-29019500D03*
%TD*%
D14*
%TO.C,D9*%
X216021000Y-28163250D03*
X216021000Y-31463250D03*
%TD*%
D10*
%TO.C,MX10*%
X239198500Y-23939500D03*
D11*
X242748500Y-23939500D03*
X229298500Y-26479500D03*
D10*
X232848500Y-26479500D03*
D12*
X231578500Y-29019500D03*
D13*
X236658500Y-29019500D03*
D12*
X241738500Y-29019500D03*
%TD*%
D14*
%TO.C,D10*%
X239833500Y-28163250D03*
X239833500Y-31463250D03*
%TD*%
D10*
%TO.C,MX11*%
X258248500Y-23939500D03*
D11*
X261798500Y-23939500D03*
X248348500Y-26479500D03*
D10*
X251898500Y-26479500D03*
D12*
X250628500Y-29019500D03*
D13*
X255708500Y-29019500D03*
D12*
X260788500Y-29019500D03*
%TD*%
D14*
%TO.C,D11*%
X258883500Y-28163250D03*
X258883500Y-31463250D03*
%TD*%
D10*
%TO.C,MX12*%
X277298500Y-23939500D03*
D11*
X280848500Y-23939500D03*
X267398500Y-26479500D03*
D10*
X270948500Y-26479500D03*
D12*
X269678500Y-29019500D03*
D13*
X274758500Y-29019500D03*
D12*
X279838500Y-29019500D03*
%TD*%
D14*
%TO.C,D12*%
X277933500Y-28163250D03*
X277933500Y-31463250D03*
%TD*%
D10*
%TO.C,MX13*%
X296348500Y-23939500D03*
D11*
X299898500Y-23939500D03*
X286448500Y-26479500D03*
D10*
X289998500Y-26479500D03*
D12*
X288728500Y-29019500D03*
D13*
X293808500Y-29019500D03*
D12*
X298888500Y-29019500D03*
%TD*%
D14*
%TO.C,D13*%
X296983500Y-28163250D03*
X296983500Y-31463250D03*
%TD*%
D10*
%TO.C,MX14*%
X320161000Y-23939500D03*
D11*
X323711000Y-23939500D03*
X310261000Y-26479500D03*
D10*
X313811000Y-26479500D03*
D12*
X312541000Y-29019500D03*
D13*
X317621000Y-29019500D03*
D12*
X322701000Y-29019500D03*
%TD*%
D14*
%TO.C,D14*%
X320796000Y-28163250D03*
X320796000Y-31463250D03*
%TD*%
D10*
%TO.C,MX15*%
X29648500Y-47752000D03*
D11*
X33198500Y-47752000D03*
X19748500Y-50292000D03*
D10*
X23298500Y-50292000D03*
D12*
X22028500Y-52832000D03*
D13*
X27108500Y-52832000D03*
D12*
X32188500Y-52832000D03*
%TD*%
D14*
%TO.C,D15*%
X30283500Y-51975750D03*
X30283500Y-55275750D03*
%TD*%
D10*
%TO.C,MX16*%
X53461000Y-47752000D03*
D11*
X57011000Y-47752000D03*
X43561000Y-50292000D03*
D10*
X47111000Y-50292000D03*
D12*
X45841000Y-52832000D03*
D13*
X50921000Y-52832000D03*
D12*
X56001000Y-52832000D03*
%TD*%
D14*
%TO.C,D16*%
X54096000Y-51975750D03*
X54096000Y-55275750D03*
%TD*%
D10*
%TO.C,MX17*%
X72511000Y-47752000D03*
D11*
X76061000Y-47752000D03*
X62611000Y-50292000D03*
D10*
X66161000Y-50292000D03*
D12*
X64891000Y-52832000D03*
D13*
X69971000Y-52832000D03*
D12*
X75051000Y-52832000D03*
%TD*%
D14*
%TO.C,D17*%
X73146000Y-51975750D03*
X73146000Y-55275750D03*
%TD*%
D10*
%TO.C,MX18*%
X91561000Y-47752000D03*
D11*
X95111000Y-47752000D03*
X81661000Y-50292000D03*
D10*
X85211000Y-50292000D03*
D12*
X83941000Y-52832000D03*
D13*
X89021000Y-52832000D03*
D12*
X94101000Y-52832000D03*
%TD*%
D14*
%TO.C,D18*%
X92196000Y-51975750D03*
X92196000Y-55275750D03*
%TD*%
D10*
%TO.C,MX19*%
X110637000Y-47752000D03*
D11*
X114187000Y-47752000D03*
X100737000Y-50292000D03*
D10*
X104287000Y-50292000D03*
D12*
X103017000Y-52832000D03*
D13*
X108097000Y-52832000D03*
D12*
X113177000Y-52832000D03*
%TD*%
D15*
%TO.C,S4*%
X222373250Y-136016999D03*
D13*
X222373250Y-120777000D03*
D15*
X122360750Y-136016999D03*
D13*
X122360750Y-120777000D03*
%TD*%
D15*
%TO.C,S2*%
X294284500Y-76797000D03*
D13*
X294284500Y-92037000D03*
D15*
X318097000Y-76797000D03*
D13*
X318097000Y-92037000D03*
%TD*%
D15*
%TO.C,S1*%
X296983500Y-45909500D03*
D13*
X296983500Y-61149500D03*
D15*
X320796000Y-45909500D03*
D13*
X320796000Y-61149500D03*
%TD*%
D15*
%TO.C,S3*%
X50921000Y-103059500D03*
D13*
X50921000Y-118299500D03*
D15*
X74733500Y-103059500D03*
D13*
X74733500Y-118299500D03*
%TD*%
D12*
%TO.C,MX52*%
X146488500Y-90932000D03*
D13*
X141408500Y-90932000D03*
D12*
X136328500Y-90932000D03*
D10*
X137598500Y-88392000D03*
D11*
X134048500Y-88392000D03*
X147498500Y-85852000D03*
D10*
X143948500Y-85852000D03*
%TD*%
D16*
%TO.C,C6*%
X141732000Y-117348000D03*
X140772000Y-117348000D03*
%TD*%
D12*
%TO.C,MX63*%
X67907250Y-109982000D03*
D13*
X62827250Y-109982000D03*
D12*
X57747250Y-109982000D03*
D10*
X59017250Y-107442000D03*
D11*
X55467250Y-107442000D03*
X68917250Y-104902000D03*
D10*
X65367250Y-104902000D03*
%TD*%
D14*
%TO.C,D43*%
X273171000Y-74325750D03*
X273171000Y-71025750D03*
%TD*%
D12*
%TO.C,MX40*%
X217926000Y-71882000D03*
D13*
X212846000Y-71882000D03*
D12*
X207766000Y-71882000D03*
D10*
X209036000Y-69342000D03*
D11*
X205486000Y-69342000D03*
X218936000Y-66802000D03*
D10*
X215386000Y-66802000D03*
%TD*%
D12*
%TO.C,MX66*%
X136963500Y-109982000D03*
D13*
X131883500Y-109982000D03*
D12*
X126803500Y-109982000D03*
D10*
X128073500Y-107442000D03*
D11*
X124523500Y-107442000D03*
X137973500Y-104902000D03*
D10*
X134423500Y-104902000D03*
%TD*%
D17*
%TO.C,U2*%
X37326000Y-31370000D03*
X37326000Y-32319999D03*
X37326000Y-33269998D03*
X35051000Y-33269998D03*
X35051000Y-32319999D03*
X35051000Y-31370000D03*
%TD*%
D12*
%TO.C,MX43*%
X275076000Y-71882000D03*
D13*
X269996000Y-71882000D03*
D12*
X264916000Y-71882000D03*
D10*
X266186000Y-69342000D03*
D11*
X262636000Y-69342000D03*
X276086000Y-66802000D03*
D10*
X272536000Y-66802000D03*
%TD*%
D18*
%TO.C,RST1*%
X131191000Y-128280000D03*
X124891002Y-128280000D03*
X131191000Y-132080000D03*
X124891002Y-132080000D03*
%TD*%
D19*
%TO.C,R7*%
X143510000Y-111379000D03*
X143510000Y-112398998D03*
%TD*%
D20*
%TO.C,R3*%
X159647000Y-98812000D03*
X158627002Y-98812000D03*
%TD*%
D14*
%TO.C,D70*%
X211258500Y-112425750D03*
X211258500Y-109125750D03*
%TD*%
D21*
%TO.C,C13*%
X147447000Y-114399000D03*
X147447000Y-113439000D03*
%TD*%
D12*
%TO.C,MX42*%
X256026000Y-71882000D03*
D13*
X250946000Y-71882000D03*
D12*
X245866000Y-71882000D03*
D10*
X247136000Y-69342000D03*
D11*
X243586000Y-69342000D03*
X257036000Y-66802000D03*
D10*
X253486000Y-66802000D03*
%TD*%
D12*
%TO.C,MX83*%
X284601000Y-129032000D03*
D13*
X279521000Y-129032000D03*
D12*
X274441000Y-129032000D03*
D10*
X275711000Y-126492000D03*
D11*
X272161000Y-126492000D03*
X285611000Y-123952000D03*
D10*
X282061000Y-123952000D03*
%TD*%
D14*
%TO.C,D80*%
X175539750Y-131475750D03*
X175539750Y-128175750D03*
%TD*%
%TO.C,D71*%
X230308500Y-112425750D03*
X230308500Y-109125750D03*
%TD*%
%TO.C,D86*%
X344608500Y-136238250D03*
X344608500Y-132938250D03*
%TD*%
%TO.C,D27*%
X263646000Y-55275750D03*
X263646000Y-51975750D03*
%TD*%
%TO.C,D77*%
X56477250Y-131475750D03*
X56477250Y-128175750D03*
%TD*%
D22*
%TO.C,C7*%
X157437000Y-123112000D03*
X158397000Y-123112000D03*
%TD*%
D12*
%TO.C,MX23*%
X189351000Y-52832000D03*
D13*
X184271000Y-52832000D03*
D12*
X179191000Y-52832000D03*
D10*
X180461000Y-50292000D03*
D11*
X176911000Y-50292000D03*
X190361000Y-47752000D03*
D10*
X186811000Y-47752000D03*
%TD*%
D14*
%TO.C,D45*%
X316033500Y-74325750D03*
X316033500Y-71025750D03*
%TD*%
D12*
%TO.C,MX62*%
X32188500Y-109982000D03*
D13*
X27108500Y-109982000D03*
D12*
X22028500Y-109982000D03*
D10*
X23298500Y-107442000D03*
D11*
X19748500Y-107442000D03*
X33198500Y-104902000D03*
D10*
X29648500Y-104902000D03*
%TD*%
D12*
%TO.C,MX45*%
X317938500Y-71882000D03*
D13*
X312858500Y-71882000D03*
D12*
X307778500Y-71882000D03*
D10*
X309048500Y-69342000D03*
D11*
X305498500Y-69342000D03*
X318948500Y-66802000D03*
D10*
X315398500Y-66802000D03*
%TD*%
D12*
%TO.C,MX50*%
X108388500Y-90932000D03*
D13*
X103308500Y-90932000D03*
D12*
X98228500Y-90932000D03*
D10*
X99498500Y-88392000D03*
D11*
X95948500Y-88392000D03*
X109398500Y-85852000D03*
D10*
X105848500Y-85852000D03*
%TD*%
D14*
%TO.C,D19*%
X111246000Y-55275750D03*
X111246000Y-51975750D03*
%TD*%
D12*
%TO.C,MX59*%
X279838500Y-90932000D03*
D13*
X274758500Y-90932000D03*
D12*
X269678500Y-90932000D03*
D10*
X270948500Y-88392000D03*
D11*
X267398500Y-88392000D03*
X280848500Y-85852000D03*
D10*
X277298500Y-85852000D03*
%TD*%
D14*
%TO.C,D36*%
X139821000Y-74325750D03*
X139821000Y-71025750D03*
%TD*%
D12*
%TO.C,MX35*%
X122676000Y-71882000D03*
D13*
X117596000Y-71882000D03*
D12*
X112516000Y-71882000D03*
D10*
X113786000Y-69342000D03*
D11*
X110236000Y-69342000D03*
X123686000Y-66802000D03*
D10*
X120136000Y-66802000D03*
%TD*%
D12*
%TO.C,MX84*%
X308413500Y-133794500D03*
D13*
X303333500Y-133794500D03*
D12*
X298253500Y-133794500D03*
D10*
X299523500Y-131254500D03*
D11*
X295973500Y-131254500D03*
X309423500Y-128714500D03*
D10*
X305873500Y-128714500D03*
%TD*%
D14*
%TO.C,D28*%
X282696000Y-55275750D03*
X282696000Y-51975750D03*
%TD*%
%TO.C,D52*%
X144583500Y-93375750D03*
X144583500Y-90075750D03*
%TD*%
D23*
%TO.C,R5*%
X158627002Y-100012000D03*
X159647000Y-100012000D03*
%TD*%
D12*
%TO.C,MX76*%
X32188500Y-129032000D03*
D13*
X27108500Y-129032000D03*
D12*
X22028500Y-129032000D03*
D10*
X23298500Y-126492000D03*
D11*
X19748500Y-126492000D03*
X33198500Y-123952000D03*
D10*
X29648500Y-123952000D03*
%TD*%
D12*
%TO.C,MX30*%
X346513500Y-52832000D03*
D13*
X341433500Y-52832000D03*
D12*
X336353500Y-52832000D03*
D10*
X337623500Y-50292000D03*
D11*
X334073500Y-50292000D03*
X347523500Y-47752000D03*
D10*
X343973500Y-47752000D03*
%TD*%
D14*
%TO.C,D63*%
X66002250Y-112425750D03*
X66002250Y-109125750D03*
%TD*%
D12*
%TO.C,MX80*%
X177444750Y-129032000D03*
D13*
X172364750Y-129032000D03*
D12*
X167284750Y-129032000D03*
D10*
X168554750Y-126492000D03*
D11*
X165004750Y-126492000D03*
X178454750Y-123952000D03*
D10*
X174904750Y-123952000D03*
%TD*%
D12*
%TO.C,MX32*%
X60763500Y-71882000D03*
D13*
X55683500Y-71882000D03*
D12*
X50603500Y-71882000D03*
D10*
X51873500Y-69342000D03*
D11*
X48323500Y-69342000D03*
X61773500Y-66802000D03*
D10*
X58223500Y-66802000D03*
%TD*%
D24*
%TO.C,F1*%
X32130000Y-30735000D03*
X32130000Y-33534998D03*
%TD*%
D19*
%TO.C,R4*%
X133096000Y-132080000D03*
X133096000Y-133099998D03*
%TD*%
D12*
%TO.C,MX33*%
X84576000Y-71882000D03*
D13*
X79496000Y-71882000D03*
D12*
X74416000Y-71882000D03*
D10*
X75686000Y-69342000D03*
D11*
X72136000Y-69342000D03*
X85586000Y-66802000D03*
D10*
X82036000Y-66802000D03*
%TD*%
D12*
%TO.C,MX77*%
X58382250Y-129032000D03*
D13*
X53302250Y-129032000D03*
D12*
X48222250Y-129032000D03*
D10*
X49492250Y-126492000D03*
D11*
X45942250Y-126492000D03*
X59392250Y-123952000D03*
D10*
X55842250Y-123952000D03*
%TD*%
D12*
%TO.C,MX44*%
X294126000Y-71882000D03*
D13*
X289046000Y-71882000D03*
D12*
X283966000Y-71882000D03*
D10*
X285236000Y-69342000D03*
D11*
X281686000Y-69342000D03*
X295136000Y-66802000D03*
D10*
X291586000Y-66802000D03*
%TD*%
D21*
%TO.C,C16*%
X146304000Y-114399000D03*
X146304000Y-113439000D03*
%TD*%
D12*
%TO.C,MX61*%
X346513500Y-90932000D03*
D13*
X341433500Y-90932000D03*
D12*
X336353500Y-90932000D03*
D10*
X337623500Y-88392000D03*
D11*
X334073500Y-88392000D03*
X347523500Y-85852000D03*
D10*
X343973500Y-85852000D03*
%TD*%
D14*
%TO.C,D57*%
X239833500Y-93375750D03*
X239833500Y-90075750D03*
%TD*%
D12*
%TO.C,MX65*%
X117913500Y-109982000D03*
D13*
X112833500Y-109982000D03*
D12*
X107753500Y-109982000D03*
D10*
X109023500Y-107442000D03*
D11*
X105473500Y-107442000D03*
X118923500Y-104902000D03*
D10*
X115373500Y-104902000D03*
%TD*%
D19*
%TO.C,R8*%
X144526001Y-111379000D03*
X144526001Y-112398998D03*
%TD*%
D14*
%TO.C,D42*%
X254121000Y-74325750D03*
X254121000Y-71025750D03*
%TD*%
D12*
%TO.C,MX82*%
X265551000Y-129032000D03*
D13*
X260471000Y-129032000D03*
D12*
X255391000Y-129032000D03*
D10*
X256661000Y-126492000D03*
D11*
X253111000Y-126492000D03*
X266561000Y-123952000D03*
D10*
X263011000Y-123952000D03*
%TD*%
D14*
%TO.C,D48*%
X61239750Y-93375750D03*
X61239750Y-90075750D03*
%TD*%
D17*
%TO.C,U1*%
X132836500Y-97729001D03*
X132836500Y-99628999D03*
X130561500Y-98679000D03*
%TD*%
D14*
%TO.C,D49*%
X87433500Y-93375750D03*
X87433500Y-90075750D03*
%TD*%
D12*
%TO.C,MX60*%
X310794750Y-90932000D03*
D13*
X305714750Y-90932000D03*
D12*
X300634750Y-90932000D03*
D10*
X301904750Y-88392000D03*
D11*
X298354750Y-88392000D03*
X311804750Y-85852000D03*
D10*
X308254750Y-85852000D03*
%TD*%
D25*
%TO.C,C12*%
X151832268Y-133633950D03*
X151153446Y-134312772D03*
%TD*%
D12*
%TO.C,MX79*%
X106007250Y-129032000D03*
D13*
X100927250Y-129032000D03*
D12*
X95847250Y-129032000D03*
D10*
X97117250Y-126492000D03*
D11*
X93567250Y-126492000D03*
X107017250Y-123952000D03*
D10*
X103467250Y-123952000D03*
%TD*%
D12*
%TO.C,MX47*%
X32188500Y-90932000D03*
D13*
X27108500Y-90932000D03*
D12*
X22028500Y-90932000D03*
D10*
X23298500Y-88392000D03*
D11*
X19748500Y-88392000D03*
X33198500Y-85852000D03*
D10*
X29648500Y-85852000D03*
%TD*%
D12*
%TO.C,MX38*%
X179826000Y-71882000D03*
D13*
X174746000Y-71882000D03*
D12*
X169666000Y-71882000D03*
D10*
X170936000Y-69342000D03*
D11*
X167386000Y-69342000D03*
X180836000Y-66802000D03*
D10*
X177286000Y-66802000D03*
%TD*%
D12*
%TO.C,MX49*%
X89338500Y-90932000D03*
D13*
X84258500Y-90932000D03*
D12*
X79178500Y-90932000D03*
D10*
X80448500Y-88392000D03*
D11*
X76898500Y-88392000D03*
X90348500Y-85852000D03*
D10*
X86798500Y-85852000D03*
%TD*%
D12*
%TO.C,MX68*%
X175063500Y-109982000D03*
D13*
X169983500Y-109982000D03*
D12*
X164903500Y-109982000D03*
D10*
X166173500Y-107442000D03*
D11*
X162623500Y-107442000D03*
X176073500Y-104902000D03*
D10*
X172523500Y-104902000D03*
%TD*%
D14*
%TO.C,D72*%
X249358500Y-112425750D03*
X249358500Y-109125750D03*
%TD*%
D12*
%TO.C,MX51*%
X127438500Y-90932000D03*
D13*
X122358500Y-90932000D03*
D12*
X117278500Y-90932000D03*
D10*
X118548500Y-88392000D03*
D11*
X114998500Y-88392000D03*
X128448500Y-85852000D03*
D10*
X124898500Y-85852000D03*
%TD*%
D26*
%TO.C,U3*%
X150084500Y-118012000D03*
X150084500Y-118412001D03*
X150084500Y-118812000D03*
X150084500Y-119212000D03*
X150084500Y-119612000D03*
X150084500Y-120011999D03*
X150084500Y-120412000D03*
X150084500Y-120812000D03*
X150084500Y-121212001D03*
X150084500Y-121612000D03*
X150084500Y-122012000D03*
X150084500Y-122412000D03*
X150084500Y-122811999D03*
X150084500Y-123212000D03*
D27*
X149247000Y-124049500D03*
X148846999Y-124049500D03*
X148447000Y-124049500D03*
X148047000Y-124049500D03*
X147647000Y-124049500D03*
X147247001Y-124049500D03*
X146847000Y-124049500D03*
X146447000Y-124049500D03*
X146046999Y-124049500D03*
X145647000Y-124049500D03*
X145247000Y-124049500D03*
X144847000Y-124049500D03*
X144447001Y-124049500D03*
X144047000Y-124049500D03*
D26*
X143209500Y-123212000D03*
X143209500Y-122811999D03*
X143209500Y-122412000D03*
X143209500Y-122012000D03*
X143209500Y-121612000D03*
X143209500Y-121212001D03*
X143209500Y-120812000D03*
X143209500Y-120412000D03*
X143209500Y-120011999D03*
X143209500Y-119612000D03*
X143209500Y-119212000D03*
X143209500Y-118812000D03*
X143209500Y-118412001D03*
X143209500Y-118012000D03*
D27*
X144047000Y-117174500D03*
X144447001Y-117174500D03*
X144847000Y-117174500D03*
X145247000Y-117174500D03*
X145647000Y-117174500D03*
X146046999Y-117174500D03*
X146447000Y-117174500D03*
X146847000Y-117174500D03*
X147247001Y-117174500D03*
X147647000Y-117174500D03*
X148047000Y-117174500D03*
X148447000Y-117174500D03*
X148846999Y-117174500D03*
X149247000Y-117174500D03*
D28*
X146647000Y-120612000D03*
%TD*%
D14*
%TO.C,D20*%
X130296000Y-55275750D03*
X130296000Y-51975750D03*
%TD*%
%TO.C,D58*%
X258883500Y-93375750D03*
X258883500Y-90075750D03*
%TD*%
D12*
%TO.C,MX86*%
X346513500Y-133794500D03*
D13*
X341433500Y-133794500D03*
D12*
X336353500Y-133794500D03*
D10*
X337623500Y-131254500D03*
D11*
X334073500Y-131254500D03*
X347523500Y-128714500D03*
D10*
X343973500Y-128714500D03*
%TD*%
D14*
%TO.C,D64*%
X96958500Y-112425750D03*
X96958500Y-109125750D03*
%TD*%
%TO.C,D40*%
X216021000Y-74325750D03*
X216021000Y-71025750D03*
%TD*%
D12*
%TO.C,MX78*%
X82194750Y-129032000D03*
D13*
X77114750Y-129032000D03*
D12*
X72034750Y-129032000D03*
D10*
X73304750Y-126492000D03*
D11*
X69754750Y-126492000D03*
X83204750Y-123952000D03*
D10*
X79654750Y-123952000D03*
%TD*%
D14*
%TO.C,D24*%
X206496000Y-55275750D03*
X206496000Y-51975750D03*
%TD*%
%TO.C,D23*%
X187446000Y-55275750D03*
X187446000Y-51975750D03*
%TD*%
%TO.C,D22*%
X168396000Y-55275750D03*
X168396000Y-51975750D03*
%TD*%
D12*
%TO.C,MX22*%
X170301000Y-52832000D03*
D13*
X165221000Y-52832000D03*
D12*
X160141000Y-52832000D03*
D10*
X161411000Y-50292000D03*
D11*
X157861000Y-50292000D03*
X171311000Y-47752000D03*
D10*
X167761000Y-47752000D03*
%TD*%
D12*
%TO.C,MX81*%
X246501000Y-129032000D03*
D13*
X241421000Y-129032000D03*
D12*
X236341000Y-129032000D03*
D10*
X237611000Y-126492000D03*
D11*
X234061000Y-126492000D03*
X247511000Y-123952000D03*
D10*
X243961000Y-123952000D03*
%TD*%
D12*
%TO.C,MX31*%
X32188500Y-71882000D03*
D13*
X27108500Y-71882000D03*
D12*
X22028500Y-71882000D03*
D10*
X23298500Y-69342000D03*
D11*
X19748500Y-69342000D03*
X33198500Y-66802000D03*
D10*
X29648500Y-66802000D03*
%TD*%
D14*
%TO.C,D81*%
X244596000Y-131475750D03*
X244596000Y-128175750D03*
%TD*%
%TO.C,D76*%
X30283500Y-131475750D03*
X30283500Y-128175750D03*
%TD*%
%TO.C,D82*%
X263646000Y-131475750D03*
X263646000Y-128175750D03*
%TD*%
D29*
%TO.C,J2*%
X33304000Y-24953000D03*
X39084000Y-24953000D03*
D30*
X32944000Y-26398000D03*
X33744000Y-26398000D03*
D31*
X34944000Y-26398000D03*
X35944000Y-26398000D03*
X36444000Y-26398000D03*
X37444000Y-26398000D03*
D30*
X38644000Y-26398000D03*
X39444000Y-26398000D03*
X39444000Y-26398000D03*
X38644000Y-26398000D03*
D31*
X37944000Y-26398000D03*
X36944000Y-26398000D03*
X35444000Y-26398000D03*
X34444000Y-26398000D03*
D30*
X33744000Y-26398000D03*
X32944000Y-26398000D03*
D32*
X31874000Y-21303000D03*
D33*
X31874000Y-25483000D03*
D32*
X40514000Y-21303000D03*
D33*
X40514000Y-25483000D03*
%TD*%
D34*
%TO.C,C4*%
X144399000Y-127183000D03*
X144399000Y-128143000D03*
%TD*%
D12*
%TO.C,MX34*%
X103626000Y-71882000D03*
D13*
X98546000Y-71882000D03*
D12*
X93466000Y-71882000D03*
D10*
X94736000Y-69342000D03*
D11*
X91186000Y-69342000D03*
X104636000Y-66802000D03*
D10*
X101086000Y-66802000D03*
%TD*%
D14*
%TO.C,D33*%
X82671000Y-74325750D03*
X82671000Y-71025750D03*
%TD*%
D21*
%TO.C,C15*%
X143002000Y-115387000D03*
X143002000Y-114427000D03*
%TD*%
D14*
%TO.C,D68*%
X173158500Y-112425750D03*
X173158500Y-109125750D03*
%TD*%
D12*
%TO.C,MX54*%
X184588500Y-90932000D03*
D13*
X179508500Y-90932000D03*
D12*
X174428500Y-90932000D03*
D10*
X175698500Y-88392000D03*
D11*
X172148500Y-88392000D03*
X185598500Y-85852000D03*
D10*
X182048500Y-85852000D03*
%TD*%
D14*
%TO.C,D30*%
X344608500Y-55275750D03*
X344608500Y-51975750D03*
%TD*%
%TO.C,D61*%
X344608500Y-93375750D03*
X344608500Y-90075750D03*
%TD*%
%TO.C,D83*%
X282696000Y-131475750D03*
X282696000Y-128175750D03*
%TD*%
%TO.C,D32*%
X58858500Y-74325750D03*
X58858500Y-71025750D03*
%TD*%
D18*
%TO.C,BOOT1*%
X167868999Y-98303000D03*
X161569001Y-98303000D03*
X167868999Y-102103000D03*
X161569001Y-102103000D03*
%TD*%
D12*
%TO.C,MX85*%
X327463500Y-133794500D03*
D13*
X322383500Y-133794500D03*
D12*
X317303500Y-133794500D03*
D10*
X318573500Y-131254500D03*
D11*
X315023500Y-131254500D03*
X328473500Y-128714500D03*
D10*
X324923500Y-128714500D03*
%TD*%
D35*
%TO.C,U4*%
X163861500Y-113030000D03*
X163861500Y-114300000D03*
X163861500Y-115570000D03*
X163861500Y-116840000D03*
X156686500Y-116840000D03*
X156686500Y-115570000D03*
X156686500Y-114300000D03*
X156686500Y-113030000D03*
%TD*%
D12*
%TO.C,MX69*%
X194113500Y-109982000D03*
D13*
X189033500Y-109982000D03*
D12*
X183953500Y-109982000D03*
D10*
X185223500Y-107442000D03*
D11*
X181673500Y-107442000D03*
X195123500Y-104902000D03*
D10*
X191573500Y-104902000D03*
%TD*%
D20*
%TO.C,R6*%
X159647000Y-101212000D03*
X158627002Y-101212000D03*
%TD*%
D14*
%TO.C,D84*%
X306508500Y-136238250D03*
X306508500Y-132938250D03*
%TD*%
D12*
%TO.C,MX56*%
X222688500Y-90932000D03*
D13*
X217608500Y-90932000D03*
D12*
X212528500Y-90932000D03*
D10*
X213798500Y-88392000D03*
D11*
X210248500Y-88392000D03*
X223698500Y-85852000D03*
D10*
X220148500Y-85852000D03*
%TD*%
D16*
%TO.C,C1*%
X130561500Y-96459001D03*
X129601500Y-96459001D03*
%TD*%
D14*
%TO.C,D62*%
X30283500Y-112425750D03*
X30283500Y-109125750D03*
%TD*%
%TO.C,D21*%
X149346000Y-55275750D03*
X149346000Y-51975750D03*
%TD*%
D12*
%TO.C,MX41*%
X236976000Y-71882000D03*
D13*
X231896000Y-71882000D03*
D12*
X226816000Y-71882000D03*
D10*
X228086000Y-69342000D03*
D11*
X224536000Y-69342000D03*
X237986000Y-66802000D03*
D10*
X234436000Y-66802000D03*
%TD*%
D12*
%TO.C,MX55*%
X203638500Y-90932000D03*
D13*
X198558500Y-90932000D03*
D12*
X193478500Y-90932000D03*
D10*
X194748500Y-88392000D03*
D11*
X191198500Y-88392000D03*
X204648500Y-85852000D03*
D10*
X201098500Y-85852000D03*
%TD*%
D12*
%TO.C,MX21*%
X151251000Y-52832000D03*
D13*
X146171000Y-52832000D03*
D12*
X141091000Y-52832000D03*
D10*
X142361000Y-50292000D03*
D11*
X138811000Y-50292000D03*
X152261000Y-47752000D03*
D10*
X148711000Y-47752000D03*
%TD*%
D14*
%TO.C,D65*%
X116008500Y-112425750D03*
X116008500Y-109125750D03*
%TD*%
%TO.C,D37*%
X158871000Y-74325750D03*
X158871000Y-71025750D03*
%TD*%
D20*
%TO.C,R1*%
X34035000Y-28576000D03*
X33015000Y-28576000D03*
%TD*%
D12*
%TO.C,MX46*%
X346513500Y-71882000D03*
D13*
X341433500Y-71882000D03*
D12*
X336353500Y-71882000D03*
D10*
X337623500Y-69342000D03*
D11*
X334073500Y-69342000D03*
X347523500Y-66802000D03*
D10*
X343973500Y-66802000D03*
%TD*%
D21*
%TO.C,C2*%
X134244500Y-99324001D03*
X134244500Y-98364001D03*
%TD*%
D14*
%TO.C,D50*%
X106483500Y-93375750D03*
X106483500Y-90075750D03*
%TD*%
D36*
%TO.C,Y1*%
X148336000Y-132499138D03*
X149891635Y-130943503D03*
X151093716Y-132145584D03*
X149538081Y-133701219D03*
%TD*%
D12*
%TO.C,MX24*%
X208401000Y-52832000D03*
D13*
X203321000Y-52832000D03*
D12*
X198241000Y-52832000D03*
D10*
X199511000Y-50292000D03*
D11*
X195961000Y-50292000D03*
X209411000Y-47752000D03*
D10*
X205861000Y-47752000D03*
%TD*%
D14*
%TO.C,D35*%
X120771000Y-74325750D03*
X120771000Y-71025750D03*
%TD*%
%TO.C,D56*%
X220783500Y-93375750D03*
X220783500Y-90075750D03*
%TD*%
D37*
%TO.C,R9*%
X147454609Y-130944609D03*
X148175857Y-130223361D03*
%TD*%
D12*
%TO.C,MX64*%
X98863500Y-109982000D03*
D13*
X93783500Y-109982000D03*
D12*
X88703500Y-109982000D03*
D10*
X89973500Y-107442000D03*
D11*
X86423500Y-107442000D03*
X99873500Y-104902000D03*
D10*
X96323500Y-104902000D03*
%TD*%
D14*
%TO.C,D67*%
X154108500Y-112425750D03*
X154108500Y-109125750D03*
%TD*%
%TO.C,D66*%
X135058500Y-112425750D03*
X135058500Y-109125750D03*
%TD*%
%TO.C,D60*%
X308889750Y-93375750D03*
X308889750Y-90075750D03*
%TD*%
%TO.C,D25*%
X225546000Y-55275750D03*
X225546000Y-51975750D03*
%TD*%
D12*
%TO.C,MX57*%
X241738500Y-90932000D03*
D13*
X236658500Y-90932000D03*
D12*
X231578500Y-90932000D03*
D10*
X232848500Y-88392000D03*
D11*
X229298500Y-88392000D03*
X242748500Y-85852000D03*
D10*
X239198500Y-85852000D03*
%TD*%
D14*
%TO.C,D54*%
X182683500Y-93375750D03*
X182683500Y-90075750D03*
%TD*%
D12*
%TO.C,MX75*%
X327463500Y-114744500D03*
D13*
X322383500Y-114744500D03*
D12*
X317303500Y-114744500D03*
D10*
X318573500Y-112204500D03*
D11*
X315023500Y-112204500D03*
X328473500Y-109664500D03*
D10*
X324923500Y-109664500D03*
%TD*%
D12*
%TO.C,MX71*%
X232213500Y-109982000D03*
D13*
X227133500Y-109982000D03*
D12*
X222053500Y-109982000D03*
D10*
X223323500Y-107442000D03*
D11*
X219773500Y-107442000D03*
X233223500Y-104902000D03*
D10*
X229673500Y-104902000D03*
%TD*%
D14*
%TO.C,D69*%
X192208500Y-112425750D03*
X192208500Y-109125750D03*
%TD*%
D12*
%TO.C,MX36*%
X141726000Y-71882000D03*
D13*
X136646000Y-71882000D03*
D12*
X131566000Y-71882000D03*
D10*
X132836000Y-69342000D03*
D11*
X129286000Y-69342000D03*
X142736000Y-66802000D03*
D10*
X139186000Y-66802000D03*
%TD*%
D12*
%TO.C,MX28*%
X284601000Y-52832000D03*
D13*
X279521000Y-52832000D03*
D12*
X274441000Y-52832000D03*
D10*
X275711000Y-50292000D03*
D11*
X272161000Y-50292000D03*
X285611000Y-47752000D03*
D10*
X282061000Y-47752000D03*
%TD*%
D12*
%TO.C,MX73*%
X270313500Y-109982000D03*
D13*
X265233500Y-109982000D03*
D12*
X260153500Y-109982000D03*
D10*
X261423500Y-107442000D03*
D11*
X257873500Y-107442000D03*
X271323500Y-104902000D03*
D10*
X267773500Y-104902000D03*
%TD*%
D12*
%TO.C,MX67*%
X156013500Y-109982000D03*
D13*
X150933500Y-109982000D03*
D12*
X145853500Y-109982000D03*
D10*
X147123500Y-107442000D03*
D11*
X143573500Y-107442000D03*
X157023500Y-104902000D03*
D10*
X153473500Y-104902000D03*
%TD*%
D14*
%TO.C,D55*%
X201733500Y-93375750D03*
X201733500Y-90075750D03*
%TD*%
%TO.C,D39*%
X196971000Y-74325750D03*
X196971000Y-71025750D03*
%TD*%
%TO.C,D34*%
X101721000Y-74325750D03*
X101721000Y-71025750D03*
%TD*%
D12*
%TO.C,MX72*%
X251263500Y-109982000D03*
D13*
X246183500Y-109982000D03*
D12*
X241103500Y-109982000D03*
D10*
X242373500Y-107442000D03*
D11*
X238823500Y-107442000D03*
X252273500Y-104902000D03*
D10*
X248723500Y-104902000D03*
%TD*%
D14*
%TO.C,D53*%
X163633500Y-93375750D03*
X163633500Y-90075750D03*
%TD*%
D12*
%TO.C,MX53*%
X165538500Y-90932000D03*
D13*
X160458500Y-90932000D03*
D12*
X155378500Y-90932000D03*
D10*
X156648500Y-88392000D03*
D11*
X153098500Y-88392000D03*
X166548500Y-85852000D03*
D10*
X162998500Y-85852000D03*
%TD*%
D12*
%TO.C,MX74*%
X296507250Y-109982000D03*
D13*
X291427250Y-109982000D03*
D12*
X286347250Y-109982000D03*
D10*
X287617250Y-107442000D03*
D11*
X284067250Y-107442000D03*
X297517250Y-104902000D03*
D10*
X293967250Y-104902000D03*
%TD*%
D14*
%TO.C,D75*%
X325558500Y-117188250D03*
X325558500Y-113888250D03*
%TD*%
%TO.C,D41*%
X235071000Y-74325750D03*
X235071000Y-71025750D03*
%TD*%
%TO.C,D79*%
X104102250Y-131475750D03*
X104102250Y-128175750D03*
%TD*%
D12*
%TO.C,MX26*%
X246501000Y-52832000D03*
D13*
X241421000Y-52832000D03*
D12*
X236341000Y-52832000D03*
D10*
X237611000Y-50292000D03*
D11*
X234061000Y-50292000D03*
X247511000Y-47752000D03*
D10*
X243961000Y-47752000D03*
%TD*%
D14*
%TO.C,D31*%
X30283500Y-74325750D03*
X30283500Y-71025750D03*
%TD*%
D12*
%TO.C,MX39*%
X198876000Y-71882000D03*
D13*
X193796000Y-71882000D03*
D12*
X188716000Y-71882000D03*
D10*
X189986000Y-69342000D03*
D11*
X186436000Y-69342000D03*
X199886000Y-66802000D03*
D10*
X196336000Y-66802000D03*
%TD*%
D14*
%TO.C,D51*%
X125533500Y-93375750D03*
X125533500Y-90075750D03*
%TD*%
%TO.C,D44*%
X292221000Y-74325750D03*
X292221000Y-71025750D03*
%TD*%
D21*
%TO.C,C3*%
X144145000Y-115387000D03*
X144145000Y-114427000D03*
%TD*%
D16*
%TO.C,C9*%
X141596250Y-121729500D03*
X140636250Y-121729500D03*
%TD*%
D12*
%TO.C,MX27*%
X265551000Y-52832000D03*
D13*
X260471000Y-52832000D03*
D12*
X255391000Y-52832000D03*
D10*
X256661000Y-50292000D03*
D11*
X253111000Y-50292000D03*
X266561000Y-47752000D03*
D10*
X263011000Y-47752000D03*
%TD*%
D12*
%TO.C,MX48*%
X63144750Y-90932000D03*
D13*
X58064750Y-90932000D03*
D12*
X52984750Y-90932000D03*
D10*
X54254750Y-88392000D03*
D11*
X50704750Y-88392000D03*
X64154750Y-85852000D03*
D10*
X60604750Y-85852000D03*
%TD*%
D22*
%TO.C,C10*%
X151257000Y-113919000D03*
X152217000Y-113919000D03*
%TD*%
D38*
%TO.C,J3*%
X132588000Y-136906000D03*
D39*
X135128000Y-136906000D03*
X137667999Y-136906000D03*
X140208000Y-136906000D03*
X142748000Y-136906000D03*
%TD*%
D14*
%TO.C,D73*%
X268408500Y-112425750D03*
X268408500Y-109125750D03*
%TD*%
%TO.C,D47*%
X30283500Y-93375750D03*
X30283500Y-90075750D03*
%TD*%
%TO.C,D26*%
X244596000Y-55275750D03*
X244596000Y-51975750D03*
%TD*%
D40*
%TO.C,C11*%
X148134269Y-134626770D03*
X147455447Y-133947948D03*
%TD*%
D12*
%TO.C,MX20*%
X132201000Y-52832000D03*
D13*
X127121000Y-52832000D03*
D12*
X122041000Y-52832000D03*
D10*
X123311000Y-50292000D03*
D11*
X119761000Y-50292000D03*
X133211000Y-47752000D03*
D10*
X129661000Y-47752000D03*
%TD*%
D12*
%TO.C,MX25*%
X227451000Y-52832000D03*
D13*
X222371000Y-52832000D03*
D12*
X217291000Y-52832000D03*
D10*
X218561000Y-50292000D03*
D11*
X215011000Y-50292000D03*
X228461000Y-47752000D03*
D10*
X224911000Y-47752000D03*
%TD*%
D14*
%TO.C,D74*%
X294602250Y-112425750D03*
X294602250Y-109125750D03*
%TD*%
D22*
%TO.C,C8*%
X152698499Y-117897750D03*
X153658499Y-117897750D03*
%TD*%
D12*
%TO.C,MX70*%
X213163500Y-109982000D03*
D13*
X208083500Y-109982000D03*
D12*
X203003500Y-109982000D03*
D10*
X204273500Y-107442000D03*
D11*
X200723500Y-107442000D03*
X214173500Y-104902000D03*
D10*
X210623500Y-104902000D03*
%TD*%
D23*
%TO.C,R2*%
X37841002Y-28576000D03*
X38861000Y-28576000D03*
%TD*%
D14*
%TO.C,D38*%
X177921000Y-74325750D03*
X177921000Y-71025750D03*
%TD*%
%TO.C,D85*%
X325558500Y-136238250D03*
X325558500Y-132938250D03*
%TD*%
D41*
%TO.C,J1*%
X34224000Y-37750000D03*
X34224000Y-38750000D03*
X34224000Y-39750000D03*
X34224000Y-40750000D03*
D42*
X38099000Y-36450000D03*
X38099000Y-42050000D03*
%TD*%
D12*
%TO.C,MX37*%
X160776000Y-71882000D03*
D13*
X155696000Y-71882000D03*
D12*
X150616000Y-71882000D03*
D10*
X151886000Y-69342000D03*
D11*
X148336000Y-69342000D03*
X161786000Y-66802000D03*
D10*
X158236000Y-66802000D03*
%TD*%
D43*
%TO.C,C5*%
X138557000Y-114808000D03*
X137007000Y-114808000D03*
%TD*%
D14*
%TO.C,D78*%
X80289750Y-131475750D03*
X80289750Y-128175750D03*
%TD*%
D12*
%TO.C,MX58*%
X260788500Y-90932000D03*
D13*
X255708500Y-90932000D03*
D12*
X250628500Y-90932000D03*
D10*
X251898500Y-88392000D03*
D11*
X248348500Y-88392000D03*
X261798500Y-85852000D03*
D10*
X258248500Y-85852000D03*
%TD*%
D34*
%TO.C,C14*%
X145669000Y-127183000D03*
X145669000Y-128143000D03*
%TD*%
D14*
%TO.C,D46*%
X344608500Y-74325750D03*
X344608500Y-71025750D03*
%TD*%
%TO.C,D59*%
X277933500Y-93375750D03*
X277933500Y-90075750D03*
%TD*%
M02*
